Coordinates
version=1
nRows=32
nColumns=22
inDegrees=yes

Units are S.I. units (second, meters, Newtons, ...)
If the header above contains a line with 'inDegrees', this indicates whether rotational values are in degrees (yes) or radians (no).

endheader
time	pelvis_tilt	pelvis_list	pelvis_rotation	pelvis_tx	pelvis_ty	pelvis_tz	hip_flexion_r	hip_adduction_r	hip_rotation_r	knee_angle_r	ankle_angle_r	subtalar_angle_r	hip_flexion_l	hip_adduction_l	hip_rotation_l	knee_angle_l	ankle_angle_l	subtalar_angle_l	lumbar_extension	lumbar_bending	lumbar_rotation
      1.49000000	     -8.03589222	     -0.31264156	    -28.77140533	     -0.35338972	      0.81595545	     -0.12092242	     12.53954412	      6.97764986	    -11.48496213	    -50.20718986	     30.56242559	    -13.96408028	     28.43350499	     -5.52053016	      8.75122622	    -84.14329423	      1.15379174	     -1.97036840	    -19.07874487	      7.03014549	      1.55938876
      1.50000000	     -7.52998230	      0.39649315	    -28.42284587	     -0.33867373	      0.81908987	     -0.11278306	     10.25062529	      5.96595749	    -11.80359276	    -48.40120883	     29.61083452	    -12.73018713	     31.20502039	     -4.25060203	      8.92000017	    -84.69859875	      2.36267828	     -3.06303296	    -18.80972145	      5.84968091	      2.73878719
      1.51000000	     -7.02942016	      1.16882037	    -28.06666444	     -0.32323773	      0.82294432	     -0.10440858	      7.83731825	      4.90868462	    -12.15682556	    -46.30038357	     28.26073547	    -11.29299153	     33.75438407	     -2.90682036	      8.87952069	    -84.61890217	      3.39374367	     -3.84341234	    -18.45289477	      4.59653388	      3.97505486
      1.52000000	     -6.55149517	      1.97211567	    -27.72727622	     -0.30713689	      0.82749649	     -0.09576308	      5.31399707	      3.86098617	    -12.51814507	    -43.90424374	     26.43907575	     -9.68316814	     36.04499364	     -1.57673675	      8.61302057	    -83.90553730	      4.24142416	     -4.34147609	    -18.02697059	      3.30722984	      5.28156295
      1.53000000	     -6.14834752	      2.79297088	    -27.40669328	     -0.29042958	      0.83259568	     -0.08685269	      2.75790414	      2.86471863	    -12.88386899	    -41.25515335	     24.09379140	     -7.76705454	     38.09500991	     -0.32050428	      8.14326050	    -82.58588049	      5.01660135	     -4.65959582	    -17.48962448	      2.02426591	      6.64177239
      1.54000000	     -5.72054861	      3.60155604	    -27.12845843	     -0.27315331	      0.83836732	     -0.07761878	      0.07538756	      1.91117411	    -13.20778513	    -38.36232379	     21.18388875	     -5.77526832	     39.74584123	      0.84859843	      7.45430260	    -80.64890312	      5.59801638	     -4.86868716	    -16.97320187	      0.71679969	      8.02420265
      1.55000000	     -5.33550534	      4.36740682	    -26.89993326	     -0.25540759	      0.84457895	     -0.06806896	     -2.63036869	      1.06080061	    -13.45821514	    -35.30101885	     17.70748151	     -3.65998206	     41.03961039	      1.85981187	      6.59085185	    -78.15531259	      6.18209092	     -5.03650685	    -16.42443883	     -0.54596400	      9.43610615
      1.56000000	     -5.01801554	      5.06248236	    -26.71905383	     -0.23730788	      0.85109561	     -0.05820620	     -5.30362085	      0.37086720	    -13.50671437	    -32.12854445	     13.68554910	     -1.44325992	     41.98228689	      2.68673123	      5.60476286	    -75.15185766	      6.69563253	     -5.23871748	    -15.83922060	     -1.71903213	     10.80579934
      1.57000000	     -4.73498335	      5.70535850	    -26.56023883	     -0.21884848	      0.85776611	     -0.04812776	     -7.91789000	     -0.23067898	    -13.39657033	    -28.95333742	      9.27486683	      0.70787393	     42.54222448	      3.41262835	      4.53763938	    -71.68569442	      7.17563026	     -5.46006019	    -15.23992909	     -2.81931157	     12.07027052
      1.58000000	     -4.51448932	      6.26901082	    -26.42587909	     -0.20012553	      0.86438495	     -0.03787936	    -10.39775749	     -0.71373066	    -12.99926064	    -25.88791352	      4.64671470	      2.71566348	     42.74679523	      4.03301809	      3.45073477	    -67.83400860	      7.59484231	     -5.64135369	    -14.61650951	     -3.79790287	     13.22433120
      1.59000000	     -4.32366858	      6.76437358	    -26.32222652	     -0.18116453	      0.87079060	     -0.02747970	    -12.71545179	     -1.14176937	    -12.29855601	    -23.06032964	      0.10103234	      4.33462814	     42.57861681	      4.58257001	      2.33949926	    -63.66697066	      7.98415877	     -5.64152422	    -13.99609238	     -4.67420938	     14.19920667
      1.60000000	     -4.25963571	      7.14051594	    -26.24779511	     -0.16210864	      0.87668738	     -0.01704470	    -14.70627103	     -1.45113885	    -11.15102302	    -20.65242673	     -4.15020749	      5.84074308	     42.17811456	      5.01517124	      1.29673179	    -59.33953435	      8.12216714	     -5.43171014	    -13.31244203	     -5.33481931	     15.06145009
      1.61000000	     -4.29291378	      7.39901742	    -26.20576953	     -0.14299466	      0.88194186	     -0.00662612	    -16.31296027	     -1.69660867	     -9.59471783	    -18.84973841	     -7.78312913	      6.95182555	     41.55479332	      5.35746031	      0.33008382	    -54.96660711	      7.97658279	     -4.91714339	    -12.60016409	     -5.78850288	     15.78612292
      1.62000000	     -4.34597091	      7.57152531	    -26.23826967	     -0.12383437	      0.88647137	      0.00380867	    -17.49429957	     -1.98490955	     -7.80743591	    -17.85529168	    -10.56424849	      7.38360666	     40.68108351	      5.63764439	     -0.63609571	    -50.66264247	      7.70594945	     -4.20604894	    -11.91763664	     -6.11267514	     16.41660993
      1.63000000	     -4.48196902	      7.62983850	    -26.33094344	     -0.10476428	      0.89009218	      0.01419297	    -18.10123967	     -2.24077253	     -5.84566685	    -17.83330225	    -12.45438843	      7.41606417	     39.69614569	      5.80446183	     -1.57816021	    -46.62006867	      7.16384945	     -3.35756665	    -11.22707301	     -6.24476112	     16.94707283
      1.64000000	     -4.67508746	      7.60038842	    -26.48712123	     -0.08583608	      0.89272596	      0.02450858	    -18.11613457	     -2.47013949	     -3.86242031	    -18.81784645	    -13.46962676	      7.02370469	     38.64683852	      5.86898473	     -2.55074988	    -42.98067498	      6.45974083	     -2.56421103	    -10.54752393	     -6.22880284	     17.39627333
      1.65000000	     -4.88339812	      7.49178349	    -26.67771660	     -0.06708321	      0.89436714	      0.03468916	    -17.56748368	     -2.67179796	     -2.14334083	    -20.79225821	    -13.85271024	      6.17045278	     37.54471866	      5.86961346	     -3.52655457	    -39.85606271	      5.65751603	     -1.78308739	     -9.93211979	     -6.10177935	     17.79030993
      1.66000000	     -5.08713794	      7.36418158	    -26.88907434	     -0.04849817	      0.89496013	      0.04473742	    -16.54949478	     -2.87590287	     -0.70836270	    -23.55046044	    -13.73584538	      5.13870844	     36.43000611	      5.84381971	     -4.56722034	    -37.31612664	      4.98802176	     -1.44261590	     -9.36734196	     -5.94431997	     18.05580963
      1.67000000	     -5.22279766	      7.22455939	    -27.07344398	     -0.03003475	      0.89457726	      0.05459703	    -15.21186969	     -3.13040693	      0.22912918	    -26.90194970	    -13.34600995	      4.00273720	     35.26080236	      5.84094710	     -5.63686036	    -35.38648701	      4.53511250	     -1.49654817	     -8.92453000	     -5.80235131	     18.18320425
      1.68000000	     -5.25634403	      7.10055670	    -27.18783235	     -0.01161727	      0.89328003	      0.06424637	    -13.69616442	     -3.49006382	      0.67346188	    -30.61171263	    -12.80601385	      2.88902487	     33.99690602	      5.92221183	     -6.66072662	    -34.00979909	      4.48924647	     -1.96700763	     -8.62274102	     -5.72699086	     18.11141838
      1.69000000	     -5.16249780	      6.98774408	    -27.19057807	      0.00679807	      0.89112929	      0.07366472	    -12.09939037	     -4.00506450	      0.56894739	    -34.53681202	    -12.13072202	      1.76228223	     32.60890690	      6.10156360	     -7.59552118	    -33.14274519	      5.00309459	     -2.84508545	     -8.49480901	     -5.73072285	     17.81134636
      1.70000000	     -4.94208946	      6.89580265	    -27.06209266	      0.02520145	      0.88820253	      0.08283993	    -10.46768152	     -4.69633654	      0.04907582	    -38.57297312	    -11.27850142	      0.67673202	     31.07815748	      6.40609378	     -8.32955772	    -32.67577043	      6.17606077	     -4.04427279	     -8.54434301	     -5.82142730	     17.24867852
      1.71000000	     -4.60904983	      6.80582244	    -26.79173411	      0.04353970	      0.88458672	      0.09174856	     -8.81493426	     -5.55345062	     -0.79760901	    -42.67154863	    -10.20581664	     -0.47147020	     29.40670866	      6.83046830	     -8.73885003	    -32.52036953	      8.06578338	     -5.52646855	     -8.78015027	     -5.96915735	     16.47260354
      1.72000000	     -4.17702186	      6.76232879	    -26.40526338	      0.06173083	      0.88036379	      0.10041122	     -7.09674926	     -6.60349607	     -1.80402798	    -46.82926877	     -8.90407011	     -1.65767915	     27.64091936	      7.39131084	     -8.83703843	    -32.59571847	     10.52374348	     -7.13187839	     -9.17702160	     -6.20298582	     15.46418442
      1.73000000	     -3.67127666	      6.77229150	    -25.92272025	      0.07966815	      0.87566618	      0.10884725	     -5.27556299	     -7.81355092	     -2.82319674	    -51.02770573	     -7.33556324	     -2.98024587	     25.82987795	      8.08412001	     -8.57198343	    -32.83756601	     13.37862415	     -8.78473307	     -9.71968704	     -6.51094220	     14.24898600
      1.74000000	     -3.10721658	      6.85981606	    -25.38443025	      0.09725650	      0.87067900	      0.11709427	     -3.30017515	     -9.16532854	     -3.70923995	    -55.25168472	     -5.53945083	     -4.48349373	     24.02452070	      8.91017201	     -7.96708264	    -33.19962147	     16.39812615	    -10.44146667	    -10.38823828	     -6.90176092	     12.86672196
      1.75000000	     -2.51582802	      7.02485907	    -24.83071744	      0.11440700	      0.86561417	      0.12525321	     -1.11886507	    -10.59187455	     -4.33419986	    -59.45598862	     -3.53985750	     -6.21415322	     22.28001912	      9.83226716	     -7.06721813	    -33.66826615	     19.37160570	    -12.03223671	    -11.15167432	     -7.35959532	     11.34326362
      1.76000000	     -1.92380848	      7.26067473	    -24.30128054	      0.13109955	      0.86072362	      0.13342679	      1.30696455	    -12.02821500	     -4.62113490	    -63.57101822	     -1.42564591	     -8.14892712	     20.62296597	     10.80758476	     -5.94894890	    -34.21445931	     22.12325516	    -13.51081713	    -11.97317929	     -7.86421035	      9.70674580
      1.77000000	     -1.36118551	      7.53273861	    -23.83589894	      0.14736049	      0.85626428	      0.14175085	      3.99472480	    -13.37701298	     -4.52889097	    -67.49995912	      0.70519759	    -10.25790916	     19.04730640	     11.75541429	     -4.71873741	    -34.79563414	     24.54311955	    -14.82386898	    -12.81389176	     -8.36806707	      7.97644514
      1.78000000	     -0.86201416	      7.80823635	    -23.47670299	      0.16327768	      0.85245026	      0.15036241	      6.95540392	    -14.54929810	     -4.05608126	    -71.13522985	      2.73310422	    -12.41304987	     17.52736693	     12.58465447	     -3.52882441	    -35.33517332	     26.57080020	    -15.89606776	    -13.61200397	     -8.82773337	      6.17591299
      1.79000000	     -0.42549894	      7.99889820	    -23.24429062	      0.17901548	      0.84955936	      0.15937726	     10.08148570	    -15.41271554	     -3.26752040	    -74.32182265	      4.70045163	    -14.58407890	     15.92949271	     13.19602274	     -2.40523338	    -35.68337750	     28.14760815	    -16.57838108	    -14.36293995	     -9.15532542	      4.34735047
      1.80000000	     -0.13773778	      8.10482151	    -23.22453909	      0.19460364	      0.84755046	      0.16893368	     13.47656001	    -15.88098809	     -2.13869553	    -77.02164425	      6.38536528	    -16.45070364	     14.30451887	     13.49073157	     -1.58803683	    -35.76008426	     29.33126873	    -16.93806570	    -14.92102549	     -9.33462555	      2.58834635
